<!-- Generated by IcoMoon.io -->
<svg version="1.1" xmlns="http://www.w3.org/2000/svg" width="52" height="52" viewBox="0 0 32 32">
<path fill="#c93433" d="M14.688-0.032c0.853 0 1.707 0 2.56 0 5.806 0.661 10.126 3.52 12.96 8.576 0.916 1.778 1.503 3.656 1.76 5.632 0 1.216 0 2.432 0 3.648-0.098 0.416-0.183 0.843-0.256 1.28-0.068 0.070-0.121 0.156-0.16 0.256-0.198 0.758-0.421 1.505-0.672 2.24 0.003 0.059 0.024 0.101 0.064 0.128-1.887 4.743-5.258 7.921-10.112 9.536-0.114-0.072-0.242-0.082-0.384-0.032-0.295 0.072-0.583 0.168-0.864 0.288-0.087-0.013-0.173-0.035-0.256-0.064-0.133 0.103-0.272 0.188-0.416 0.256-0.361 0.092-0.724 0.178-1.088 0.256-1.216 0-2.432 0-3.648 0-5.88-0.905-10.136-3.998-12.768-9.28-0.284-0.699-0.551-1.403-0.8-2.112 0.063-0.020 0.105-0.063 0.128-0.128-0.151-0.617-0.279-1.236-0.384-1.856-0.011-0.14 0.032-0.258 0.128-0.352-0.040-0.048-0.072-0.101-0.096-0.16-0.043 0.085-0.085 0.085-0.128 0-0.021-0.064-0.043-0.128-0.064-0.192-0.011-0.428-0.043-0.855-0.096-1.28-0.044-0.023-0.086-0.045-0.128-0.064 0-0.277 0-0.555 0-0.832 0.046-0.027 0.078-0.069 0.096-0.128 0.022-0.602 0.086-1.199 0.192-1.792 0.052-0.226 0.041-0.439-0.032-0.64 1.178-5.647 4.4-9.647 9.664-12 1.556-0.601 3.156-0.996 4.8-1.184z"></path>
<path fill="#da3e4a" d="M24.288 8.16c0-0.064 0-0.128 0-0.192 0.035-0.004 0.056-0.025 0.064-0.064-2.464-0.085-4.917-0.085-7.36 0-0.057 0.236-0.121 0.471-0.192 0.704-0.017-0.261 0.004-0.517 0.064-0.768 2.389-0.053 4.778-0.085 7.168-0.096 0.194-0.127 0.343-0.085 0.448 0.128-0.058 0.106-0.122 0.202-0.192 0.288z"></path>
<path fill="#e497a0" d="M16.992 7.904c2.443-0.085 4.896-0.085 7.36 0-0.008 0.039-0.029 0.060-0.064 0.064-2.421-0.064-4.853-0.085-7.296-0.064z"></path>
<path fill="#fefefe" d="M15.456 7.904c0 2.219 0 4.437 0 6.656 0.206 0.020 0.398-0.001 0.576-0.064 0-0.064 0-0.128 0-0.192 0.293-1.885 0.549-3.784 0.768-5.696 0.071-0.233 0.135-0.468 0.192-0.704 2.443-0.021 4.875 0 7.296 0.064 0 0.064 0 0.128 0 0.192-0.894 2.334-1.747 4.691-2.56 7.072 0.893 2.434 1.768 4.877 2.624 7.328-2.496 0-4.992 0-7.488 0-0.046-0.353-0.11-0.694-0.192-1.024-0.174-0.965-0.377-1.925-0.608-2.88-0.157-0.117-0.338-0.159-0.544-0.128-0.064 1.333-0.085 2.677-0.064 4.032-2.432 0-4.864 0-7.296 0 0-4.885 0-9.771 0-14.656 2.438-0.085 4.87-0.085 7.296 0z"></path>
<path fill="#e38c99" d="M15.456 7.904c0.064 2.186 0.085 4.384 0.064 6.592 0.171 0 0.341 0 0.512 0-0.178 0.063-0.37 0.084-0.576 0.064 0-2.219 0-4.437 0-6.656z"></path>
<path fill="#d4363f" d="M16.032 14.304c0 0.064 0 0.128 0 0.192-0.171 0-0.341 0-0.512 0 0.021-2.208-0-4.406-0.064-6.592-2.426-0.085-4.858-0.085-7.296 0-0.021 0-0.043 0-0.064 0 2.437-0.087 4.89-0.172 7.36-0.256 0.149 0.093 0.235 0.231 0.256 0.416-0.074 2.099-0.085 4.201-0.032 6.304 0.137 0.086 0.255 0.065 0.352-0.064z"></path>
<path fill="#d1565a" d="M8.096 7.904c0.021 0 0.043 0 0.064 0 0 4.885 0 9.771 0 14.656 2.432 0 4.864 0 7.296 0-0.021-1.355 0-2.699 0.064-4.032 0 1.387 0 2.773 0 4.16-2.469 0.021-4.933-0-7.392-0.064-0.032-4.907-0.043-9.813-0.032-14.72z"></path>
<path fill="#c54a49" opacity="0.529" d="M0.224 13.152c0.073 0.201 0.084 0.414 0.032 0.64-0.106 0.593-0.17 1.19-0.192 1.792-0.018 0.059-0.050 0.101-0.096 0.128 0-0.341 0-0.683 0-1.024 0.090-0.503 0.176-1.015 0.256-1.536z"></path>
<path fill="#c23f3f" d="M-0.032 16.544c0.042 0.019 0.084 0.041 0.128 0.064 0.053 0.425 0.085 0.852 0.096 1.28 0.021 0.064 0.043 0.128 0.064 0.192 0.043 0.085 0.085 0.085 0.128 0 0.024 0.059 0.056 0.112 0.096 0.16-0.096 0.094-0.139 0.212-0.128 0.352 0.105 0.62 0.233 1.239 0.384 1.856-0.023 0.065-0.065 0.108-0.128 0.128-0.279-1.104-0.493-2.213-0.64-3.328 0-0.235 0-0.469 0-0.704z"></path>
<path fill="#be3e3e" opacity="0.573" d="M31.712 19.104c-0.168 0.906-0.424 1.781-0.768 2.624-0.040-0.027-0.061-0.069-0.064-0.128 0.25-0.735 0.474-1.482 0.672-2.24 0.039-0.1 0.092-0.186 0.16-0.256z"></path>
<path fill="#d0575c" d="M16.672 21.536c0.082 0.33 0.146 0.671 0.192 1.024 2.496 0 4.992 0 7.488 0-0.027 0.046-0.069 0.078-0.128 0.096-2.475 0.043-4.949 0.043-7.424 0-0.052-0.020-0.094-0.052-0.128-0.096 0.026-0.337 0.026-0.678 0-1.024z"></path>
<path fill="#bf4240" opacity="0.565" d="M20.832 31.264c-0.615 0.225-1.255 0.375-1.92 0.448 0.144-0.068 0.283-0.153 0.416-0.256 0.083 0.029 0.169 0.051 0.256 0.064 0.281-0.12 0.569-0.216 0.864-0.288 0.142-0.050 0.27-0.040 0.384 0.032z"></path>
</svg>
